<?xml version="1.0" encoding="UTF-8"?>
<svg xmlns="http://www.w3.org/2000/svg" xmlns:xlink="http://www.w3.org/1999/xlink" viewBox="0 0 64 64" width="64px" height="64px">
<g id="surface151624385">
<path style="fill-rule:evenodd;fill:rgb(0%,0%,0%);fill-opacity:1;stroke-width:6;stroke-linecap:butt;stroke-linejoin:round;stroke:rgb(80.000001%,80.000001%,80.000001%);stroke-opacity:1;stroke-miterlimit:10;" d="M 197.746379 113.000003 C 197.746379 150.430596 173.500758 182.196325 139.837299 193.412758 C 135.546164 194.248325 134.016651 191.600001 134.016651 189.334055 C 134.016651 186.544109 134.101624 177.423677 134.101624 166.079785 C 134.101624 158.191461 131.396651 153.00811 128.365948 150.402272 C 147.229948 148.277948 167.042812 141.140218 167.042812 108.581408 C 167.042812 99.319354 163.785515 91.75676 158.361407 85.822814 C 159.239461 83.69849 162.128542 75.059571 157.497515 63.38995 C 157.497515 63.38995 150.402272 61.138166 134.214921 72.085517 C 127.45957 70.216112 120.194381 69.267247 113.000003 69.238923 C 105.805624 69.267247 98.540435 70.216112 91.785084 72.085517 C 75.597733 61.138166 68.474166 63.38995 68.474166 63.38995 C 63.871463 75.059571 66.788869 83.69849 67.638598 85.822814 C 62.242815 91.75676 58.928869 99.319354 58.928869 108.581408 C 58.928869 141.055245 78.713409 148.334596 97.52076 150.458921 C 95.127354 152.583245 92.918057 156.307894 92.139138 161.802812 C 87.309841 163.955461 75.045409 167.708434 67.482815 154.735894 C 67.482815 154.735894 63.007571 146.635137 54.510274 146.026164 C 54.510274 146.026164 46.239572 145.912867 53.929626 151.152867 C 53.929626 151.152867 59.481193 153.772867 63.347463 163.573083 C 63.347463 163.573083 68.30422 180.043677 91.898382 174.931136 C 91.926706 181.998055 92.011679 187.323028 92.011679 189.334055 C 92.011679 191.600001 90.453841 194.191677 86.205192 193.412758 C 52.527572 182.22465 28.253626 150.430596 28.253626 113.000003 C 28.253626 66.179896 66.179896 28.253626 113.000003 28.253626 C 159.82011 28.253626 197.746379 66.179896 197.746379 113.000003 Z M 197.746379 113.000003 " transform="matrix(0.275823,0,0,0.275823,0.832,0.832)"/>
<path style=" stroke:none;fill-rule:evenodd;fill:rgb(0%,0%,0%);fill-opacity:1;" d="M 32 8.625 C 19.085938 8.625 8.625 19.085938 8.625 32 C 8.625 42.324219 15.320312 51.09375 24.609375 54.179688 C 25.78125 54.394531 26.210938 53.679688 26.210938 53.054688 C 26.210938 52.5 26.1875 51.03125 26.179688 49.082031 C 19.671875 50.492188 18.304688 45.949219 18.304688 45.949219 C 17.238281 43.246094 15.707031 42.523438 15.707031 42.523438 C 13.585938 41.078125 15.867188 41.109375 15.867188 41.109375 C 18.210938 41.277344 19.445312 43.511719 19.445312 43.511719 C 21.53125 47.089844 24.914062 46.054688 26.246094 45.460938 C 26.460938 43.945312 27.070312 42.917969 27.730469 42.332031 C 22.542969 41.746094 17.085938 39.738281 17.085938 30.78125 C 17.085938 28.226562 18 26.140625 19.488281 24.503906 C 19.253906 23.917969 18.449219 21.535156 19.71875 18.316406 C 19.71875 18.316406 21.683594 17.695312 26.148438 20.714844 C 28.011719 20.199219 30.015625 19.9375 32 19.929688 C 33.984375 19.9375 35.988281 20.199219 37.851562 20.714844 C 42.316406 17.695312 44.273438 18.316406 44.273438 18.316406 C 45.550781 21.535156 44.753906 23.917969 44.511719 24.503906 C 46.007812 26.140625 46.90625 28.226562 46.90625 30.78125 C 46.90625 39.761719 41.441406 41.730469 36.238281 42.316406 C 37.074219 43.035156 37.820312 44.464844 37.820312 46.640625 C 37.820312 49.769531 37.796875 52.285156 37.796875 53.054688 C 37.796875 53.679688 38.21875 54.410156 39.402344 54.179688 C 48.6875 51.085938 55.375 42.324219 55.375 32 C 55.375 19.085938 44.914062 8.625 32 8.625 Z M 32 8.625 "/>
</g>
</svg>
